<?xml version="1.0" encoding="iso-8859-1"?>
<!-- Generator: Adobe Illustrator 23.0.2, SVG Export Plug-In . SVG Version: 6.00 Build 0)  -->
<svg version="1.1" id="Layer_1" xmlns="http://www.w3.org/2000/svg" xmlns:xlink="http://www.w3.org/1999/xlink" x="0px" y="0px"
	 viewBox="0 0 519 359" style="enable-background:new 0 0 519 359;" xml:space="preserve">
<g>
	<g>
		<g>
			<g>
				<g>
					<line style="fill:none;" x1="464" y1="183.3" x2="438.6" y2="183.3"/>
					<path style="fill:#D7D2CE;" d="M464,184.7h-4v-2.9h4V184.7z M458.1,184.7h-4v-2.9h4V184.7z M452.1,184.7h-4v-2.9h4V184.7z
						 M446.1,184.7h-4v-2.9h4V184.7z M440.2,184.7h-1.5v-2.9h1.5V184.7z"/>
				</g>
				<g>
					<path style="fill:#FFFFFF;" d="M467.265,184.803c0.212-1.205-0.121-2.47-0.732-3.659c-0.335-0.038-0.669-0.09-1.004-0.133
						c-0.076,0.714-0.13,1.438-0.13,2.189c-0.005,0.632,0.027,1.255,0.08,1.872c0.583-0.032,1.166-0.061,1.75-0.093
						C467.242,184.922,467.253,184.871,467.265,184.803z"/>
				</g>
			</g>
		</g>
		<g>
			<g>
				<g>
					<path style="fill:#D7D2CE;" d="M236.7,42.1c-1.5-0.7-2.6-2.1-2.6-3.9c0-0.2,0-0.4,0.1-0.6L222,30.7l14.7,24.7V42.1z"/>
					<path style="fill:#D7D2CE;" d="M203.5,58h30.9c0-0.1,0.1-0.2,0.1-0.3l-15.2-25.6c-0.3,0.1-0.6,0.1-0.9,0.1s-0.6,0-0.9-0.1
						L202.7,57C203.1,57.3,203.4,57.6,203.5,58z"/>
					<path style="fill:#D7D2CE;" d="M203.6,61.1l11.9,6.7c0.8-0.7,1.9-1.2,3-1.2c1.2,0,2.2,0.5,3,1.2l12.3-6.9h-30.2
						C203.7,60.9,203.6,61,203.6,61.1z"/>
					<path style="fill:#D7D2CE;" d="M203.7,37.1c0.1,0.4,0.2,0.7,0.2,1.1c0,2-1.5,3.8-3.5,4.1v13L215,30.7L203.7,37.1z"/>
					<path style="fill:#D7D2CE;" d="M425.1,11.3H12.9c-7.3,0-13.4,5.8-13.4,13v58.8c-0.1,0.2-0.2,0.5-0.2,0.7s0.1,0.5,0.2,0.7v257.7
						c0,7.1,6.1,13,13.4,13H425c7.3,0,13.4-5.9,13.4-13V24.4C438.5,17.1,432.4,11.3,425.1,11.3z M195.1,38.2c0-0.6,0.1-1.2,0.4-1.6
						c0.2-0.5,0.6-1,1-1.4c0.2-0.2,0.4-0.4,0.7-0.5c0.5-0.3,1-0.6,1.6-0.7c0.3-0.1,0.6-0.1,0.9-0.1s0.6,0,0.9,0.1
						c0.6,0.1,1.1,0.4,1.6,0.7l0.1,0.1l12-6.8c0-2.4,2-4.3,4.5-4.3s4.5,1.9,4.5,4.3l12.6,7c0.2-0.1,0.3-0.3,0.5-0.4
						c0.5-0.3,1-0.6,1.6-0.7c0.3-0.1,0.6-0.1,0.9-0.1s0.6,0,0.9,0.1c0.6,0.1,1.1,0.4,1.6,0.7c0.2,0.2,0.5,0.3,0.7,0.5
						c0.4,0.4,0.7,0.9,1,1.4c0.2,0.5,0.4,1.1,0.4,1.6c0,2-1.4,3.7-3.3,4.1v13.2c1.9,0.5,3.3,2.1,3.3,4.1c0,0.6-0.1,1.2-0.4,1.6
						c-0.2,0.5-0.6,1-1,1.4c-0.2,0.2-0.4,0.4-0.7,0.5c-0.5,0.3-1,0.6-1.6,0.7c-0.3,0.1-0.6,0.1-0.9,0.1s-0.6,0-0.9-0.1
						c-0.6-0.1-1.1-0.4-1.6-0.7c-0.1,0-0.1-0.1-0.2-0.1l-13,7.2c0,0.2,0.1,0.4,0.1,0.6c0,0.6-0.1,1.2-0.4,1.6c-0.2,0.5-0.6,1-1,1.4
						c-0.2,0.2-0.4,0.4-0.7,0.5c-0.5,0.3-1,0.6-1.6,0.7c-0.3,0.1-0.6,0.1-0.9,0.1s-0.6,0-0.9-0.1c-0.6-0.1-1.1-0.4-1.6-0.7
						c-0.2-0.2-0.5-0.3-0.7-0.5c-0.4-0.4-0.7-0.9-1-1.4c-0.2-0.5-0.4-1.1-0.4-1.6c0-0.2,0-0.4,0.1-0.6l-12.5-7
						c-0.4,0.2-0.9,0.4-1.3,0.5c-0.3,0.1-0.6,0.1-0.9,0.1s-0.6,0-0.9-0.1c-0.6-0.1-1.1-0.4-1.6-0.7c-0.2-0.2-0.5-0.3-0.7-0.5
						c-0.4-0.4-0.7-0.9-1-1.4c-0.2-0.5-0.4-1.1-0.4-1.6c0-1.6,1-3.1,2.4-3.8V42C196,41.2,195.1,39.8,195.1,38.2z M435.5,342.2
						c0,5.6-4.7,10.1-10.4,10.1H12.9c-5.8,0-10.4-4.5-10.4-10.1v-257h433V342.2z"/>
				</g>
			</g>
			<g>
				<g>
					<g>
						<path style="fill:#D7D2CE;" d="M412.5,106.05H29.3c-5.2,0-9.4,4.1-9.4,9.2v208.3c0,5,4.3,9.2,9.4,9.2h383.2
							c1.9,0,3.5-1.5,3.5-3.4v-219.9C416,107.55,414.5,106.05,412.5,106.05z M413,329.35c0,0.3-0.2,0.5-0.5,0.5H88.4v-220.9h324.1
							c0.3,0,0.5,0.2,0.5,0.5V329.35z"/>
					</g>
				</g>
				<g>
					<g>
						<path style="fill:#D7D2CE;" d="M150.2,186.5c-19.1,0-34.6,15.1-34.6,33.6s15.5,33.6,34.6,33.6s34.6-15.1,34.6-33.6
							C184.7,201.7,169.2,186.5,150.2,186.5z"/>
						<g>
							<polygon style="fill:#FFFFFF;" points="130.5,209.2 150.2,198.2 169.7,209.2 169.7,231.2 150.2,242.2 130.5,231.2 							"/>
							<path style="fill:#D7D2CE;" d="M150.2,243.8L129,232v-23.6l21.2-11.9l21.2,11.9V232L150.2,243.8z M132,230.3l18.2,10.1
								l18.2-10.1V210l-18.2-10.1L132,210V230.3z"/>
						</g>
						<g>
							<line style="fill:none;" x1="184.2" y1="220.3" x2="205.8" y2="220.3"/>
							<g>
								<rect x="184.2" y="218.9" style="fill:#D7D2CE;" width="2" height="2.9"/>
								<path style="fill:#D7D2CE;" d="M202,221.8h-3.5v-2.9h3.5V221.8z M196.7,221.8h-3.5v-2.9h3.5V221.8z M191.5,221.8H188v-2.9
									h3.5V221.8z"/>
								<rect x="203.8" y="218.9" style="fill:#D7D2CE;" width="2" height="2.9"/>
							</g>
						</g>
						<path style="fill:#D7D2CE;" d="M300.1,121.9c-54.1,0-98.1,42.7-98.1,95.3s44,95.3,98.1,95.3s98.1-42.7,98.1-95.3
							S354.3,121.9,300.1,121.9z M357,226.8c4.5,1.3,6.4,8.4,1.4,10.6c-1.9,0.8-3.8,1.4-5.7,1.9c-0.6,1.3-1.8,2.4-3.1,3
							c3.8,2.5,4,9.5-1.5,10.5c-1.6,0.3-3.2,0.4-4.9,0.5c-0.3,2-1.6,4-4.1,5c-2.2,0.9-4.6,1.6-6.9,2.3c-0.3,0.3-0.6,0.7-0.9,1
							c-2.5,2.6-6.2,4.2-10.2,4.8c-2.2,2.7-7,3.3-9.9-0.4c-0.1-0.2-0.3-0.4-0.4-0.5c-0.3-0.1-0.6-0.3-0.9-0.4
							c-4.1,2.2-8.8,2.8-13.9,0.4c-1-0.5-1.8-1.4-2.3-2.4c-1.7-0.6-3.2-2-4-3.6c-6-0.1-11.9-0.3-17.8-1.1c-0.7,3.3-4.6,6.1-8.9,4.3
							c-6.1-2.6-11.8-5.9-16.6-10.4c-3.2-2.9-1.7-8.7,2.6-9.7c3.2-0.7,7.4-1.7,10.8-3.4c-1.1-0.5-2.2-0.9-3.5-1.2
							c-0.7-0.2-1.3-0.4-1.8-0.7c-1.6-0.1-3.2-0.3-4.7-0.6c-2.7-0.5-4-2.2-4.3-4.1c-3-3.2-1.6-9.9,4.2-9.9c2.8,0,5.7,0,8.5,0.1
							c-4.2-2.8-7.6-6.7-10.4-11.1c-1.4-2.3-0.9-6.2,1.7-7.7c-0.2-1.7-0.1-3.4,0.1-5.2c-2.5-1-4.3-3.3-3.2-6.6
							c0.3-1,0.6-2.1,0.8-3.2c0.3-1.7,1.4-2.9,2.8-3.5c0.9-1.4,1.8-2.7,2.7-4.2c0.7-1.2,1.9-2.1,3.2-2.5c2.3-4.2,8.3-3.4,10.4,0.2
							c0.7-0.1,1.5-0.3,2.2-0.4c0.2-0.8,0.4-1.5,0.7-2.3c1.7-5.5,9.8-5.5,11.5,0c0.2,0.5,0.3,1.1,0.5,1.6c2,0,4-0.1,6-0.3
							c2.8-0.2,6.1-0.5,8.5-1.8c0.7-0.4,0.9-0.7,1-0.9c0-0.1,0-0.2,0-0.3c-0.3-1-0.5-2-0.7-3.2c-1-7.2,9.1-10.4,11.5-3.1
							c0.4,1.1,0.6,2.1,0.8,3.2c1.2,3.3,3.7,4.3,8.3,4.3c6.1,0,12.1-1.3,18.2-0.9c12.6,0.8,20.4,11.8,22.4,23.4
							c0.1,0.5,0.2,1,0.2,1.5c3.2,3.6,4.9,8.3,3.8,14.3c-0.4,1.9-2.3,3.6-4.2,4c-1.8,0.4-3.7,0.8-5.6,1.1c0.5,2.2,0.9,4.5,1.2,6.7
							C354.1,226,355.6,226.3,357,226.8z"/>
						<g>
							<path style="fill:#FFFFFF;" d="M300.1,139.6l-69.3,38.9v77.8l69.3,38.9l69.3-38.9v-77.8L300.1,139.6z M357,226.8
								c4.5,1.3,6.4,8.4,1.4,10.6c-1.9,0.8-3.8,1.4-5.7,1.9c-0.6,1.3-1.8,2.4-3.1,3c3.8,2.5,4,9.5-1.5,10.5
								c-1.6,0.3-3.2,0.4-4.9,0.5c-0.3,2-1.6,4-4.1,5c-2.2,0.9-4.6,1.6-6.9,2.3c-0.3,0.3-0.6,0.7-0.9,1c-2.5,2.6-6.2,4.2-10.2,4.8
								c-2.2,2.7-7,3.3-9.9-0.4c-0.1-0.2-0.3-0.4-0.4-0.5c-0.3-0.1-0.6-0.3-0.9-0.4c-4.1,2.2-8.8,2.8-13.9,0.4
								c-1-0.5-1.8-1.4-2.3-2.4c-1.7-0.6-3.2-2-4-3.6c-6-0.1-11.9-0.3-17.8-1.1c-0.7,3.3-4.6,6.1-8.9,4.3
								c-6.1-2.6-11.8-5.9-16.6-10.4c-3.2-2.9-1.7-8.7,2.6-9.7c3.2-0.7,7.4-1.7,10.8-3.4c-1.1-0.5-2.2-0.9-3.5-1.2
								c-0.7-0.2-1.3-0.4-1.8-0.7c-1.6-0.1-3.2-0.3-4.7-0.6c-2.7-0.5-4-2.2-4.3-4.1c-3-3.2-1.6-9.9,4.2-9.9c2.8,0,5.7,0,8.5,0.1
								c-4.2-2.8-7.6-6.7-10.4-11.1c-1.4-2.3-0.9-6.2,1.7-7.7c-0.2-1.7-0.1-3.4,0.1-5.2c-2.5-1-4.3-3.3-3.2-6.6
								c0.3-1,0.6-2.1,0.8-3.2c0.3-1.7,1.4-2.9,2.8-3.5c0.9-1.4,1.8-2.7,2.7-4.2c0.7-1.2,1.9-2.1,3.2-2.5c2.3-4.2,8.3-3.4,10.4,0.2
								c0.7-0.1,1.5-0.3,2.2-0.4c0.2-0.8,0.4-1.5,0.7-2.3c1.7-5.5,9.8-5.5,11.5,0c0.2,0.5,0.3,1.1,0.5,1.6c2,0,4-0.1,6-0.3
								c2.8-0.2,6.1-0.5,8.5-1.8c0.7-0.4,0.9-0.7,1-0.9c0-0.1,0-0.2,0-0.3c-0.3-1-0.5-2-0.7-3.2c-1-7.2,9.1-10.4,11.5-3.1
								c0.4,1.1,0.6,2.1,0.8,3.2c1.2,3.3,3.7,4.3,8.3,4.3c6.1,0,12.1-1.3,18.2-0.9c12.6,0.8,20.4,11.8,22.4,23.4
								c0.1,0.5,0.2,1,0.2,1.5c3.2,3.6,4.9,8.3,3.8,14.3c-0.4,1.9-2.3,3.6-4.2,4c-1.8,0.4-3.7,0.8-5.6,1.1c0.5,2.2,0.9,4.5,1.2,6.7
								C354.1,226,355.6,226.3,357,226.8z"/>
							<path style="fill:#D7D2CE;" d="M300.1,296.7L229.3,257v-79.4l70.8-39.7l70.8,39.7V257L300.1,296.7z M232.3,255.3l67.8,38
								l67.8-38v-76.1l-67.8-38l-67.8,38L232.3,255.3L232.3,255.3z"/>
						</g>
						<g>
							<line style="fill:none;" x1="136.9" y1="213.3" x2="140.3" y2="213.3"/>
							<rect x="136.9" y="211.8" style="fill:#D7D2CE;" width="3.5" height="2.9"/>
						</g>
						<g>
							<line style="fill:none;" x1="136.9" y1="218" x2="140.3" y2="218"/>
							<rect x="136.9" y="216.5" style="fill:#D7D2CE;" width="3.5" height="2.9"/>
						</g>
						<g>
							<line style="fill:none;" x1="136.9" y1="222.8" x2="140.3" y2="222.8"/>
							<rect x="136.9" y="221.4" style="fill:#D7D2CE;" width="3.5" height="2.9"/>
						</g>
						<g>
							<line style="fill:none;" x1="136.9" y1="227.3" x2="140.3" y2="227.3"/>
							<rect x="136.9" y="225.8" style="fill:#D7D2CE;" width="3.5" height="2.9"/>
						</g>
						<g>
							<line style="fill:none;" x1="143.5" y1="213.3" x2="156.9" y2="213.3"/>
							<rect x="143.5" y="211.8" style="fill:#D7D2CE;" width="13.4" height="2.9"/>
						</g>
						<g>
							<line style="fill:none;" x1="143.5" y1="218" x2="162.9" y2="218"/>
							<rect x="143.5" y="216.5" style="fill:#D7D2CE;" width="19.4" height="2.9"/>
						</g>
						<g>
							<line style="fill:none;" x1="143.5" y1="222.8" x2="159.8" y2="222.8"/>
							<rect x="143.5" y="221.4" style="fill:#D7D2CE;" width="16.3" height="2.9"/>
						</g>
						<g>
							<line style="fill:none;" x1="143.5" y1="227.3" x2="155.4" y2="227.3"/>
							<rect x="143.5" y="225.8" style="fill:#D7D2CE;" width="11.9" height="2.9"/>
						</g>
					</g>
				</g>
				<g>
					<g>
						<g>
							<path style="fill:#FFFFFF;" d="M122.4,259.7l-19.7,11v22l19.7,11l19.5-11v-22L122.4,259.7z M126.545,288.955
								c-14.824,0-14.799-23,0-23C141.369,265.955,141.345,288.955,126.545,288.955z"/>
							<path style="fill:#D7D2CE;" d="M122.4,305.3l-21.2-11.9v-23.6l21.2-11.9l21.2,11.9v23.6L122.4,305.3z M104.2,291.8l18.2,10.1
								l18.2-10.1v-20.4l-18.2-10.1l-18.2,10.1V291.8z"/>
						</g>
						<g>
							<path style="fill:#FFFFFF;" d="M116.744,271.803c-2.399,1.122-4.044,3.477-4.044,6.197c0,3.02,2.024,5.592,4.862,6.523
								C115.038,280.902,114.774,275.76,116.744,271.803z"/>
						</g>
					</g>
				</g>
				<g>
					<g>
						<g>
							<polygon style="fill:#FFFFFF;" points="158,271.2 177.7,260.2 197.2,271.2 197.2,293.2 177.7,304.2 158,293.2 							"/>
							<path style="fill:#D7D2CE;" d="M177.7,306l-21.2-11.9v-23.6l21.2-11.9l21.2,11.9v23.6L177.7,306z M159.5,292.5l18.2,10.1
								l18.2-10.1v-20.4L177.7,262l-18.2,10.1V292.5z"/>
						</g>
						<g>
							<path style="fill:none;" d="M171.1,280.8c-0.1,1.3-0.1,2.4,0.4,3.5l2.9-4.1C173.3,280.4,172.2,280.6,171.1,280.8z"/>
							<path style="fill:none;" d="M178.8,279l-5,7c0.6,0,1.3-0.1,2-0.2l5.1-7.1C180.3,278.7,179.6,278.8,178.8,279z"/>
							<path style="fill:none;" d="M183.6,279.8l-3.4,4.7c1.3-0.4,2.6-0.7,3.9-0.9C184.3,282.3,184.3,281,183.6,279.8z"/>
						</g>
					</g>
				</g>
			</g>
		</g>
	</g>
</g>
<g>
	<g>
		<path style="fill:#D7D2CE;" d="M261.2,205.8c0-4.2,0.1-8.5,0.1-12.7c15.1,0,30.2-0.1,45.3-0.1c8,0,16-0.1,23.9-0.1
			c1.7,0,8.7-0.9,9.6,0c0.6,0.6,0,4.3,0,5.4c0,2.4,0,4.8,0,7.3c0,5.1,8,5.2,8,0.1c0-5.7,2.5-18-4.8-20.4c-3.2-1.1-7.5-0.4-10.9-0.4
			c-5.1,0-10.2,0-15.3,0.1c-4.4,0-8.8,0-13.3,0c0-0.3,0-0.6,0-0.9c0-0.4-0.1-0.7-0.2-1.1c0-0.1,0-0.2,0-0.3c0.1-0.3,0.2-0.7,0.2-1
			c0-1.4,0-2.7,0-4.1c0-2.1-1.8-4.1-4-4s-4,1.7-4,4c0,1.4,0,2.7,0,4.1c0,0.3,0.1,0.7,0.1,1c0,0.1,0,0.2,0,0.4
			c-0.1,0.4-0.2,0.7-0.2,1.1c0,0.3,0,0.7,0,1c-10.8,0-21.8,0.6-32.6,0.1c-5.8-0.3-9.2-1.6-10,5.4c-0.6,5-0.1,10.3-0.1,15.3
			C253.1,210.9,261.1,210.9,261.2,205.8z"/>
	</g>
</g>
<g>
	
		<line style="fill:#FFFFFF;stroke:#FFFFFF;stroke-width:4;stroke-miterlimit:10;" x1="34.364" y1="208.95" x2="74.182" y2="208.95"/>
	
		<line style="fill:#FFFFFF;stroke:#FFFFFF;stroke-width:4;stroke-miterlimit:10;" x1="34.364" y1="215.55" x2="74.182" y2="215.55"/>
	
		<line style="fill:#FFFFFF;stroke:#FFFFFF;stroke-width:4;stroke-miterlimit:10;" x1="34.364" y1="222.15" x2="62.727" y2="222.15"/>
	
		<line style="fill:#FFFFFF;stroke:#FFFFFF;stroke-width:4;stroke-miterlimit:10;" x1="34.364" y1="228.95" x2="68.182" y2="228.95"/>
</g>
<path style="fill:#D7D2CE;" d="M180.826,272.945c-1.609,0-3.021,1.189-3.021,2.515v5.295c0,1.511,1.152,2.515,3,2.515l-1.478,2.427
	c-0.09,0.466,0.378,0.418,0.643,0.228l6.171-2.655h4.522c1.609,0,2.914-1.066,2.914-2.392v-5.417c0-1.326-1.412-2.515-3.021-2.515
	H180.826z M181.812,276.955c0.65,0,1.179,0.416,1.179,0.95c0,0.533-0.528,0.967-1.179,0.967c-0.65,0-1.179-0.434-1.179-0.967
	C180.633,277.371,181.162,276.955,181.812,276.955z M185.755,276.955c0.65,0,1.157,0.416,1.157,0.95
	c0,0.533-0.507,0.967-1.157,0.967s-1.179-0.434-1.179-0.967C184.576,277.371,185.105,276.955,185.755,276.955z M189.762,276.955
	c0.65,0,1.157,0.416,1.157,0.95c0,0.533-0.507,0.967-1.157,0.967c-0.65,0-1.179-0.434-1.179-0.967
	C188.583,277.371,189.112,276.955,189.762,276.955z M172.746,277.231c-0.419,0.039-0.815,0.136-1.233,0.288
	c-0.449,0.164-0.628,0.412-1.019,0.651c-0.335,0.332-0.629,0.601-0.868,0.981c-0.187,0.297-0.28,0.687-0.403,1.001
	c0.002,0.35-0.098,0.707,0.025,1.187c-0.002,0.238,0.067,0.271,0.126,0.888c0.055,0.572,0.181,0.663,0.327,1.002
	c0.132,0.303,0.167,0.451,0.428,0.795c0.301,0.576,0.614,0.656,0.956,1.218c0.15,0.247-0.074,0.849-0.302,0.991
	c-1.052,0.659-4.137,1.506-5.12,1.858c-0.826,0.296-1.258,0.823-1.258,1.848v0.826c0,0.403,0.524,0.991,1.195,0.991h15.295
	c0.719,0,1.22-0.598,1.22-0.991v-0.856c0-1.025-0.445-1.543-1.283-1.817c-0.347-0.113-1.346-0.399-2.327-0.723
	c-1.217-0.401-2.527-0.856-2.943-1.136c-0.222-0.149-0.452-0.704-0.302-0.95c0.343-0.562,0.747-0.853,0.981-1.27
	c0.261-0.344,0.271-0.481,0.402-0.785c0.147-0.338,0.272-0.429,0.327-1.001c0.059-0.616,0.128-0.65,0.126-0.888
	c0.123-0.48,0.023-0.838,0.025-1.187c-0.122-0.314-0.253-0.725-0.44-1.022c-0.239-0.379-0.52-0.659-0.855-0.991
	c-0.391-0.238-0.545-0.456-0.994-0.62c-0.39-0.142-0.757-0.234-1.145-0.278C173.359,277.211,173.059,277.219,172.746,277.231
	L172.746,277.231z"/>
<g>
	<path style="fill:#D7D2CE;" d="M133.611,272.112h-0.491c-0.001-0.962-0.001-1.547-0.001-1.547c0-0.261-0.191-0.473-0.427-0.473
		c-6.312,0-10.076,1.581-10.922,1.978c-0.846-0.397-4.616-1.978-10.938-1.978c-0.236,0-0.427,0.212-0.427,0.473
		c0,0-0.001,0.585-0.001,1.547h-0.483c-0.738,0-1.338,0.665-1.338,1.483v16.664c0,0.818,0.6,1.483,1.338,1.483h23.691
		c0.738,0,1.338-0.665,1.338-1.483v-16.664C134.95,272.777,134.349,272.112,133.611,272.112z M132.269,288.778
		c-5.323,0.06-8.76,1.24-10.076,1.789v-17.665c0.911-0.407,4.424-1.794,10.072-1.861
		C132.271,276.783,132.278,286.571,132.269,288.778z M121.339,272.899v17.665c-1.324-0.55-4.763-1.726-10.085-1.786
		c-0.008-2.015-0.003-10.348,0.003-16.153c0.001-0.013,0.002-0.026,0.002-0.04c0-0.013-0.001-0.025-0.002-0.038
		c0-0.525,0.001-1.03,0.001-1.506C116.899,271.108,120.413,272.487,121.339,272.899z M109.436,290.259v-16.664
		c0-0.296,0.217-0.537,0.484-0.537h0.482c-0.002,1.786-0.004,4.313-0.005,6.84c-0.001,2.334-0.002,4.669-0.001,6.422
		c0,0.877,0.001,1.608,0.003,2.12c0.001,0.257,0.001,0.459,0.002,0.598c0.002,0.295,0.003,0.405,0.128,0.544
		c0.08,0.089,0.189,0.139,0.302,0.139c3.65,0,6.447,0.552,8.273,1.073h-9.184C109.653,290.795,109.436,290.555,109.436,290.259z
		 M134.095,290.259c0,0.296-0.217,0.537-0.484,0.537h-9.179c1.823-0.521,4.615-1.073,8.26-1.073c0.113,0,0.222-0.05,0.302-0.139
		c0.125-0.139,0.126-0.249,0.128-0.544c0.001-0.138,0.002-0.341,0.002-0.598c0.001-0.513,0.002-1.244,0.003-2.12
		c0.001-1.753,0-4.088-0.001-6.422c-0.001-2.528-0.003-5.054-0.005-6.84h0.49c0.267,0,0.484,0.241,0.484,0.537L134.095,290.259
		L134.095,290.259z"/>
	<path style="fill:#D7D2CE;" d="M115.785,274.381c1.451,0.218,2.809,0.531,4.038,0.929c0.04,0.013,0.08,0.019,0.12,0.019
		c0.185,0,0.355-0.134,0.41-0.341c0.066-0.251-0.064-0.514-0.29-0.587c-1.269-0.411-2.67-0.734-4.162-0.958
		c-0.234-0.036-0.449,0.146-0.481,0.405C115.388,274.107,115.552,274.346,115.785,274.381z"/>
	<path style="fill:#D7D2CE;" d="M112.634,274.068c0.452,0.023,0.907,0.055,1.351,0.096c0.012,0.001,0.024,0.002,0.036,0.002
		c0.22,0,0.407-0.187,0.425-0.434c0.019-0.261-0.155-0.489-0.391-0.511c-0.455-0.042-0.92-0.075-1.382-0.098
		c-0.235-0.01-0.435,0.19-0.446,0.451C112.216,273.834,112.399,274.056,112.634,274.068z"/>
	<path style="fill:#D7D2CE;" d="M120.063,278.441c-0.862-0.279-1.796-0.52-2.777-0.716c-0.232-0.046-0.454,0.125-0.496,0.382
		c-0.042,0.257,0.112,0.504,0.344,0.55c0.952,0.19,1.856,0.423,2.689,0.693c0.04,0.013,0.08,0.019,0.12,0.019
		c0.185,0,0.355-0.134,0.41-0.341C120.419,278.777,120.289,278.514,120.063,278.441z"/>
	<path style="fill:#D7D2CE;" d="M112.634,278.107c0.917,0.047,1.826,0.13,2.701,0.249c0.018,0.002,0.035,0.004,0.052,0.004
		c0.213,0,0.397-0.176,0.423-0.416c0.029-0.259-0.138-0.496-0.372-0.527c-0.896-0.121-1.827-0.207-2.766-0.255
		c-0.235-0.01-0.435,0.19-0.446,0.451C112.216,277.874,112.399,278.095,112.634,278.107z"/>
	<path style="fill:#D7D2CE;" d="M119.823,277.33c0.04,0.013,0.08,0.019,0.12,0.019c0.185,0,0.355-0.134,0.41-0.341
		c0.066-0.251-0.064-0.514-0.29-0.587c-0.298-0.097-0.61-0.19-0.927-0.278c-0.229-0.063-0.461,0.091-0.518,0.345
		c-0.057,0.254,0.082,0.511,0.311,0.574C119.235,277.146,119.536,277.237,119.823,277.33z"/>
	<path style="fill:#D7D2CE;" d="M112.634,276.088c1.562,0.079,3.076,0.264,4.5,0.549c0.026,0.005,0.051,0.008,0.076,0.008
		c0.203,0,0.383-0.161,0.42-0.389c0.042-0.257-0.112-0.504-0.345-0.55c-1.461-0.292-3.013-0.481-4.612-0.563
		c-0.235-0.011-0.435,0.19-0.446,0.451C112.216,275.854,112.399,276.076,112.634,276.088z"/>
	<path style="fill:#D7D2CE;" d="M120.063,280.461c-1.403-0.455-2.959-0.799-4.624-1.024c-0.234-0.032-0.447,0.153-0.476,0.413
		c-0.029,0.259,0.138,0.496,0.372,0.527c1.619,0.219,3.129,0.553,4.488,0.993c0.04,0.013,0.08,0.019,0.12,0.019
		c0.185,0,0.355-0.134,0.41-0.341C120.419,280.797,120.289,280.534,120.063,280.461z"/>
	<path style="fill:#D7D2CE;" d="M112.634,280.127c0.302,0.015,0.605,0.035,0.9,0.058c0.01,0.001,0.02,0.001,0.03,0.001
		c0.222,0,0.41-0.191,0.426-0.44c0.017-0.261-0.161-0.487-0.396-0.505c-0.303-0.023-0.612-0.043-0.921-0.059
		c-0.236-0.011-0.435,0.19-0.446,0.451S112.399,280.115,112.634,280.127z"/>
	<path style="fill:#D7D2CE;" d="M120.063,284.5c-0.862-0.279-1.796-0.52-2.777-0.716c-0.232-0.046-0.454,0.125-0.496,0.382
		c-0.042,0.257,0.112,0.504,0.344,0.55c0.952,0.19,1.856,0.423,2.689,0.693c0.04,0.013,0.08,0.019,0.12,0.019
		c0.185,0,0.355-0.134,0.41-0.341C120.419,284.837,120.289,284.574,120.063,284.5z"/>
	<path style="fill:#D7D2CE;" d="M112.634,284.167c0.917,0.047,1.826,0.13,2.701,0.249c0.018,0.002,0.035,0.004,0.052,0.004
		c0.213,0,0.397-0.176,0.423-0.416c0.029-0.259-0.138-0.496-0.372-0.527c-0.896-0.121-1.827-0.207-2.766-0.255
		c-0.235-0.01-0.435,0.19-0.446,0.451C112.216,283.934,112.399,284.155,112.634,284.167z"/>
	<path style="fill:#D7D2CE;" d="M120.063,286.52c-1.403-0.455-2.959-0.799-4.623-1.024c-0.234-0.032-0.447,0.153-0.476,0.413
		c-0.029,0.259,0.138,0.496,0.372,0.527c1.619,0.219,3.128,0.553,4.487,0.993c0.04,0.013,0.08,0.019,0.12,0.019
		c0.185,0,0.355-0.134,0.41-0.341C120.419,286.856,120.289,286.593,120.063,286.52z"/>
	<path style="fill:#D7D2CE;" d="M112.634,286.187c0.3,0.015,0.604,0.035,0.901,0.058c0.01,0.001,0.02,0.001,0.03,0.001
		c0.222,0,0.41-0.191,0.426-0.44c0.017-0.261-0.161-0.487-0.396-0.505c-0.304-0.024-0.614-0.043-0.922-0.059
		c-0.235-0.009-0.435,0.19-0.446,0.451C112.216,285.953,112.399,286.175,112.634,286.187z"/>
	<path style="fill:#D7D2CE;" d="M119.823,283.389c0.04,0.013,0.08,0.019,0.12,0.019c0.185,0,0.355-0.134,0.41-0.341
		c0.066-0.251-0.064-0.514-0.29-0.587c-0.298-0.096-0.61-0.19-0.927-0.278c-0.229-0.063-0.461,0.091-0.518,0.345
		c-0.057,0.254,0.082,0.511,0.311,0.574C119.235,283.206,119.536,283.296,119.823,283.389z"/>
	<path style="fill:#D7D2CE;" d="M112.634,282.147c1.562,0.079,3.076,0.264,4.5,0.549c0.026,0.005,0.051,0.008,0.076,0.008
		c0.203,0,0.383-0.161,0.42-0.389c0.042-0.257-0.112-0.504-0.345-0.55c-1.461-0.292-3.013-0.481-4.612-0.563
		c-0.235-0.01-0.435,0.19-0.446,0.451C112.216,281.914,112.399,282.135,112.634,282.147z"/>
	<path style="fill:#D7D2CE;" d="M123.588,275.329c0.04,0,0.08-0.006,0.12-0.019c1.229-0.398,2.587-0.711,4.038-0.929
		c0.234-0.035,0.397-0.274,0.366-0.533c-0.032-0.259-0.247-0.44-0.481-0.405c-1.493,0.225-2.893,0.547-4.162,0.958
		c-0.226,0.073-0.356,0.336-0.29,0.587C123.233,275.195,123.403,275.329,123.588,275.329z"/>
	<path style="fill:#D7D2CE;" d="M129.51,274.165c0.012,0,0.024,0,0.036-0.002c0.444-0.041,0.899-0.073,1.351-0.096
		c0.236-0.012,0.418-0.233,0.407-0.495s-0.21-0.462-0.446-0.451c-0.463,0.024-0.928,0.057-1.382,0.098
		c-0.235,0.022-0.41,0.25-0.391,0.511C129.103,273.978,129.29,274.165,129.51,274.165z"/>
	<path style="fill:#D7D2CE;" d="M123.588,279.369c0.04,0,0.08-0.006,0.12-0.019c0.833-0.27,1.737-0.503,2.689-0.693
		c0.232-0.046,0.386-0.293,0.344-0.55c-0.042-0.257-0.264-0.428-0.496-0.382c-0.981,0.196-1.915,0.437-2.777,0.716
		c-0.226,0.073-0.356,0.336-0.29,0.587C123.233,279.235,123.403,279.369,123.588,279.369z"/>
	<path style="fill:#D7D2CE;" d="M130.858,277.162c-0.939,0.048-1.869,0.133-2.766,0.255c-0.234,0.032-0.401,0.268-0.372,0.527
		c0.026,0.24,0.211,0.416,0.423,0.416c0.017,0,0.035-0.001,0.052-0.004c0.875-0.118,1.784-0.202,2.701-0.249
		c0.236-0.012,0.418-0.233,0.407-0.495C131.293,277.352,131.092,277.15,130.858,277.162z"/>
	<path style="fill:#D7D2CE;" d="M123.588,277.349c0.04,0,0.08-0.006,0.12-0.019c0.287-0.093,0.588-0.183,0.894-0.268
		c0.229-0.063,0.368-0.32,0.311-0.574c-0.057-0.254-0.289-0.408-0.518-0.345c-0.317,0.088-0.629,0.181-0.927,0.278
		c-0.226,0.073-0.356,0.336-0.29,0.587C123.233,277.215,123.403,277.349,123.588,277.349z"/>
	<path style="fill:#D7D2CE;" d="M130.858,275.142c-1.599,0.081-3.151,0.271-4.612,0.563c-0.232,0.046-0.386,0.293-0.345,0.55
		c0.037,0.229,0.217,0.389,0.42,0.389c0.025,0,0.051-0.002,0.076-0.008c1.424-0.285,2.938-0.469,4.5-0.549
		c0.236-0.012,0.418-0.233,0.407-0.495C131.293,275.332,131.093,275.13,130.858,275.142z"/>
	<path style="fill:#D7D2CE;" d="M123.588,281.388c0.04,0,0.08-0.006,0.12-0.019c1.359-0.44,2.869-0.774,4.488-0.993
		c0.234-0.032,0.401-0.268,0.372-0.527s-0.242-0.445-0.476-0.413c-1.665,0.225-3.221,0.57-4.624,1.024
		c-0.226,0.073-0.356,0.336-0.29,0.587C123.233,281.254,123.403,281.388,123.588,281.388z"/>
	<path style="fill:#D7D2CE;" d="M130.858,279.182c-0.309,0.016-0.618,0.036-0.921,0.059c-0.235,0.018-0.413,0.245-0.396,0.505
		c0.016,0.25,0.203,0.44,0.426,0.44c0.01,0,0.02,0,0.03-0.001c0.296-0.023,0.599-0.042,0.901-0.058
		c0.236-0.012,0.418-0.233,0.407-0.495C131.293,279.372,131.092,279.17,130.858,279.182z"/>
	<path style="fill:#D7D2CE;" d="M123.178,285.087c0.055,0.207,0.225,0.341,0.41,0.341c0.04,0,0.08-0.006,0.12-0.019
		c0.833-0.27,1.737-0.503,2.689-0.693c0.232-0.046,0.386-0.293,0.344-0.55c-0.042-0.257-0.264-0.428-0.496-0.382
		c-0.981,0.196-1.915,0.437-2.777,0.716C123.242,284.574,123.112,284.837,123.178,285.087z"/>
	<path style="fill:#D7D2CE;" d="M130.858,283.221c-0.939,0.048-1.869,0.133-2.766,0.255c-0.234,0.032-0.401,0.268-0.372,0.527
		c0.026,0.24,0.211,0.416,0.423,0.416c0.017,0,0.035-0.001,0.052-0.004c0.875-0.118,1.784-0.202,2.701-0.249
		c0.236-0.012,0.418-0.233,0.407-0.495C131.293,283.411,131.092,283.211,130.858,283.221z"/>
	<path style="fill:#D7D2CE;" d="M128.092,285.496c-1.665,0.225-3.22,0.57-4.623,1.024c-0.226,0.073-0.356,0.336-0.29,0.587
		c0.055,0.207,0.225,0.341,0.41,0.341c0.04,0,0.08-0.006,0.12-0.019c1.359-0.44,2.868-0.774,4.487-0.993
		c0.234-0.032,0.401-0.268,0.372-0.527C128.539,285.649,128.326,285.464,128.092,285.496z"/>
	<path style="fill:#D7D2CE;" d="M130.858,285.241c-0.307,0.016-0.617,0.036-0.922,0.059c-0.235,0.018-0.413,0.244-0.396,0.505
		c0.016,0.25,0.203,0.44,0.426,0.44c0.01,0,0.02,0,0.03-0.001c0.298-0.023,0.601-0.043,0.901-0.058
		c0.236-0.012,0.418-0.233,0.407-0.495S131.092,285.231,130.858,285.241z"/>
	<path style="fill:#D7D2CE;" d="M123.588,283.408c0.04,0,0.08-0.006,0.12-0.019c0.287-0.093,0.588-0.183,0.894-0.268
		c0.229-0.063,0.368-0.32,0.311-0.574c-0.057-0.254-0.289-0.408-0.518-0.345c-0.317,0.088-0.629,0.181-0.927,0.278
		c-0.226,0.073-0.356,0.336-0.29,0.587C123.233,283.274,123.403,283.408,123.588,283.408z"/>
	<path style="fill:#D7D2CE;" d="M130.858,281.201c-1.599,0.081-3.151,0.271-4.612,0.563c-0.232,0.046-0.386,0.293-0.345,0.55
		c0.037,0.229,0.217,0.389,0.42,0.389c0.025,0,0.051-0.002,0.076-0.008c1.424-0.285,2.938-0.469,4.5-0.549
		c0.236-0.012,0.418-0.233,0.407-0.495C131.293,281.391,131.093,281.191,130.858,281.201z"/>
</g>
<path style="fill:none;" d="M305.467,226.928c-2.516,1.711-3.521,5.325-2.249,8.09"/>
<path style="fill:none;" d="M307.133,224.919c-0.465,1.921-0.413,3.964,0.15,5.859"/>
<g>
	<g>
		<path style="fill:#D7D2CE;" d="M277.91,211.757c8.085-0.047,16.171-0.095,24.256-0.142c3.881-0.023,7.762-0.045,11.643-0.068
			c3.593-0.021,8.95-0.967,12.391,0.037c-0.978-0.978-1.956-1.956-2.933-2.933c-0.424-1.417-0.807,0.292-1.557,1.186
			c-0.874,1.042-1.914,1.909-2.949,2.782c-2.413,2.036-4.979,3.913-7.508,5.802c-4.371,3.265-9.771,6.044-13.668,9.843
			c-3.298,3.214-2.741,8.75-2.95,12.958c-0.344,6.924-0.358,13.85-0.123,20.777c0.183,5.391,8.583,5.416,8.4,0
			c-0.201-5.937-0.226-11.874-0.008-17.811c0.095-2.573-0.372-6.428,0.5-8.893c0.723-2.044,2.908-2.991,4.783-4.314
			c4.227-2.985,8.38-6.071,12.471-9.24c3.803-2.946,7.948-5.884,10.023-10.373c4.892-10.584-11.119-8.255-16.871-8.221
			c-11.966,0.07-23.933,0.14-35.899,0.21C272.506,203.388,272.495,211.788,277.91,211.757L277.91,211.757z"/>
	</g>
</g>
<g>
	<g>
		<path style="fill:#D7D2CE;" d="M277.091,240.564c2.091,0,4.182,0,6.273,0c2.197,0,4.302-1.932,4.2-4.2
			c-0.102-2.276-1.845-4.2-4.2-4.2c-2.091,0-4.182,0-6.273,0c-2.197,0-4.302,1.932-4.2,4.2
			C272.993,238.639,274.736,240.564,277.091,240.564L277.091,240.564z"/>
	</g>
</g>
<g>
	<g>
		<path style="fill:#D7D2CE;" d="M284.182,240.564c5.405,0,5.414-8.4,0-8.4C278.777,232.164,278.768,240.564,284.182,240.564
			L284.182,240.564z"/>
	</g>
</g>
<g>
	<g>
		<path style="fill:#D7D2CE;" d="M288,240.564c0.872-0.007,1.743-0.013,2.615-0.02c-0.372-2.75-0.744-5.5-1.117-8.25
			c-1.12,0.166-2.235,0.149-3.347-0.049c0,2.8,0,5.6,0,8.4c13.253-0.078,26.506-0.156,39.758-0.234c5.403-0.032,5.415-8.432,0-8.4
			c-13.253,0.078-26.506,0.156-39.758,0.234c-5.517,0.032-5.267,7.846,0,8.4c1.949,0.205,3.654,0.04,5.58-0.251
			c4.747-0.718,3.513-8.285-1.117-8.25c-0.872,0.007-1.743,0.013-2.615,0.02C282.597,232.205,282.585,240.605,288,240.564
			L288,240.564z"/>
	</g>
</g>
<g>
	<g>
		<path style="fill:#D7D2CE;" d="M279.273,203.527c-1.364,0-2.727,0-4.091,0c-2.197,0-4.302,1.932-4.2,4.2
			c0.102,2.276,1.845,4.2,4.2,4.2c1.364,0,2.727,0,4.091,0c2.197,0,4.302-1.932,4.2-4.2
			C283.371,205.452,281.627,203.527,279.273,203.527L279.273,203.527z"/>
	</g>
</g>
</svg>
