<?xml version="1.0" encoding="utf-8"?>
<!-- Generator: Adobe Illustrator 23.0.2, SVG Export Plug-In . SVG Version: 6.00 Build 0)  -->
<svg version="1.1" id="Layer_1" xmlns="http://www.w3.org/2000/svg" xmlns:xlink="http://www.w3.org/1999/xlink" x="0px" y="0px"
	 viewBox="0 0 519 359" style="enable-background:new 0 0 519 359;" xml:space="preserve">
<style type="text/css">
	.st0{fill:none;}
	.st1{fill:#D7D2CE;}
	.st2{fill:#FFFFFF;}
</style>
<g>
	<g>
		<g>
			<g>
				<line class="st0" x1="-70.3" y1="179.1" x2="-95.9" y2="179.1"/>
				<path class="st1" d="M-70.3,180.6h-4v-3h4V180.6z M-76.3,180.6h-4v-3h4V180.6z M-82.3,180.6h-4v-3h4V180.6z M-88.3,180.6h-4v-3
					h4V180.6z M-94.3,180.6h-1.5v-3h1.5V180.6z"/>
			</g>
			<g>
				<path class="st2" d="M-37.8,173.9c0.5,1.2,0.8,2.3,1.2,3.5c5.4,3.3,9.4,7,11.4,8.9c0.8-2.3,1.2-4.7,1.2-7.2
					c0-12.4-10.1-22.5-22.5-22.5c-0.7,0-1.4,0-2.1,0.1C-45.8,159.6-41.1,165.3-37.8,173.9z"/>
				<path class="st2" d="M-58,172.7c0.4,3.6,1.2,7.4,2.7,10.8c4,8.9,12.5,15.7,14.6,17.3c0.9-0.2,1.8-0.5,2.6-0.9
					c0.3-2.8,1.1-11.7-1.1-20.6c-2.2-1.3-4.6-2.6-7.2-3.6C-50.5,174.1-54.6,173.2-58,172.7z"/>
				<path class="st2" d="M-52.3,157.3c-2.1,0.6-4,1.4-5.8,2.5c-0.2,1.5-0.5,5.3-0.2,9.8c3.8,0.5,8.4,1.5,13,3.4
					c1.7,0.7,3.2,1.4,4.8,2.2c0-0.1,0-0.1-0.1-0.2C-44.4,165.1-50.3,159.1-52.3,157.3z"/>
				<path class="st2" d="M-35.6,181.7c1.3,6.8,1.1,13.1,0.7,16.6c3.6-2.2,6.5-5.3,8.4-9.1C-27.5,188.2-30.9,185-35.6,181.7z"/>
				<path class="st2" d="M-46.5,201.6c0.6,0,1.3,0,1.9-0.1c-3.7-3-10-9.1-13.4-16.8c-1.8-4-2.6-8.3-3-12.4c-3.2-0.3-5.6-0.2-6.8-0.2
					c-0.7,2.2-1.1,4.5-1.1,6.9C-69,191.5-58.9,201.6-46.5,201.6z"/>
				<path class="st2" d="M-61.3,169.3c-0.1-2.8-0.1-5.3,0-7.1c-2.2,1.9-4.1,4.3-5.4,7C-65.4,169.1-63.5,169.1-61.3,169.3z"/>
				<path class="st1" d="M-46.5,153.6c-14.1,0-25.5,11.4-25.5,25.5s11.4,25.5,25.5,25.5S-21,193.2-21,179.1S-32.5,153.6-46.5,153.6z
					 M-24,179.1c0,2.5-0.4,4.9-1.2,7.2c-2-1.9-6-5.5-11.4-8.9c-0.3-1.2-0.7-2.4-1.2-3.5c-3.3-8.6-8-14.3-10.9-17.2
					c0.7-0.1,1.4-0.1,2.1-0.1C-34.1,156.6-24,166.7-24,179.1z M-38.1,199.9c-0.9,0.3-1.7,0.6-2.6,0.9c-2.2-1.6-10.7-8.4-14.6-17.3
					c-1.5-3.4-2.3-7.2-2.7-10.8c3.5,0.5,7.5,1.4,11.7,3.1c2.6,1,5,2.3,7.2,3.6C-36.9,188.2-37.7,197.1-38.1,199.9z M-45.3,173
					c-4.7-1.9-9.2-2.8-13-3.4c-0.3-4.5,0-8.3,0.2-9.8c1.8-1.1,3.7-1.9,5.8-2.5c2,1.8,7.9,7.7,11.7,17.6c0,0.1,0.1,0.1,0.1,0.2
					C-42,174.4-43.6,173.6-45.3,173z M-61.3,162.1c-0.1,1.9-0.2,4.3,0,7.1c-2.2-0.2-4-0.2-5.4-0.2
					C-65.4,166.5-63.5,164.1-61.3,162.1z M-67.9,172.2c1.2-0.1,3.6-0.1,6.8,0.2c0.4,4,1.3,8.4,3,12.4c3.4,7.7,9.8,13.8,13.4,16.8
					c-0.6,0.1-1.2,0.1-1.9,0.1c-12.4,0-22.5-10.1-22.5-22.5C-69,176.7-68.6,174.4-67.9,172.2z M-34.9,198.3
					c0.3-3.6,0.5-9.9-0.7-16.6c4.7,3.3,8.1,6.5,9.2,7.6C-28.4,193-31.3,196.1-34.9,198.3z"/>
			</g>
		</g>
	</g>
	<g>
		<g>
			<g>
				<path class="st1" d="M-299.2,32.8c-1.5-0.7-2.6-2.2-2.6-4c0-0.2,0-0.4,0.1-0.6L-314,21l14.8,25.6V32.8z"/>
				<path class="st1" d="M-332.6,49.3h31.1c0-0.1,0.1-0.2,0.1-0.3l-15.3-26.5c-0.3,0.1-0.6,0.1-0.9,0.1c-0.3,0-0.6,0-0.9-0.1
					l-14.9,25.7C-333,48.5-332.7,48.9-332.6,49.3z"/>
				<path class="st1" d="M-332.5,52.5l12,6.9c0.8-0.7,1.9-1.2,3-1.2c1.2,0,2.2,0.5,3,1.2l12.4-7.2h-30.4
					C-332.4,52.3-332.5,52.4-332.5,52.5z"/>
				<path class="st1" d="M-332.4,27.6c0.1,0.4,0.2,0.7,0.2,1.1c0,2.1-1.5,3.9-3.5,4.3v13.5L-321,21L-332.4,27.6z"/>
				<path class="st1" d="M-109.5,0.9h-415c-7.4,0-13.5,6-13.5,13.5v60.9c-0.1,0.2-0.2,0.5-0.2,0.7s0.1,0.5,0.2,0.7v267.1
					c0,7.4,6.1,13.5,13.5,13.5h414.9c7.4,0,13.5-6.1,13.5-13.5V14.4C-96,6.9-102.1,0.9-109.5,0.9z M-341.1,28.7
					c0-0.6,0.1-1.2,0.4-1.7c0.2-0.5,0.6-1,1-1.4c0.2-0.2,0.4-0.4,0.7-0.5c0.5-0.3,1-0.6,1.6-0.7c0.3-0.1,0.6-0.1,0.9-0.1
					s0.6,0,0.9,0.1c0.6,0.1,1.1,0.4,1.6,0.7l0.1,0.1l12.1-7c0-2.5,2-4.5,4.5-4.5s4.5,2,4.5,4.5l12.7,7.3c0.2-0.1,0.3-0.3,0.5-0.4
					c0.5-0.3,1-0.6,1.6-0.7c0.3-0.1,0.6-0.1,0.9-0.1s0.6,0,0.9,0.1c0.6,0.1,1.1,0.4,1.6,0.7c0.2,0.2,0.5,0.3,0.7,0.5
					c0.4,0.4,0.7,0.9,1,1.4c0.2,0.5,0.4,1.1,0.4,1.7c0,2.1-1.4,3.8-3.3,4.3v13.7c1.9,0.5,3.3,2.2,3.3,4.3c0,0.6-0.1,1.2-0.4,1.7
					c-0.2,0.5-0.6,1-1,1.4c-0.2,0.2-0.4,0.4-0.7,0.5c-0.5,0.3-1,0.6-1.6,0.7c-0.3,0.1-0.6,0.1-0.9,0.1s-0.6,0-0.9-0.1
					c-0.6-0.1-1.1-0.4-1.6-0.7c-0.1,0-0.1-0.1-0.2-0.1l-13.1,7.5c0,0.2,0.1,0.4,0.1,0.6c0,0.6-0.1,1.2-0.4,1.7c-0.2,0.5-0.6,1-1,1.4
					c-0.2,0.2-0.4,0.4-0.7,0.5c-0.5,0.3-1,0.6-1.6,0.7c-0.3,0.1-0.6,0.1-0.9,0.1s-0.6,0-0.9-0.1c-0.6-0.1-1.1-0.4-1.6-0.7
					c-0.2-0.2-0.5-0.3-0.7-0.5c-0.4-0.4-0.7-0.9-1-1.4c-0.2-0.5-0.4-1.1-0.4-1.7c0-0.2,0-0.4,0.1-0.6l-12.6-7.3
					c-0.4,0.2-0.9,0.4-1.3,0.5c-0.3,0.1-0.6,0.1-0.9,0.1s-0.6,0-0.9-0.1c-0.6-0.1-1.1-0.4-1.6-0.7c-0.2-0.2-0.5-0.3-0.7-0.5
					c-0.4-0.4-0.7-0.9-1-1.4c-0.2-0.5-0.4-1.1-0.4-1.7c0-1.7,1-3.2,2.4-3.9V32.7C-340.1,31.9-341.1,30.4-341.1,28.7z M-99,343.8
					c0,5.8-4.7,10.5-10.5,10.5h-415c-5.8,0-10.5-4.7-10.5-10.5V77.5h436V343.8z"/>
			</g>
		</g>
		<g>
			<g>
				<g>
					<path class="st1" d="M-482.9,212.3c-0.4,0-0.7-0.1-1.1-0.1l-6.8,11.7c0.4,0.4,0.7,0.9,0.9,1.4h13.5c0.2-0.7,0.6-1.3,1.1-1.8
						l-6.5-11.3C-482.2,212.3-482.6,212.3-482.9,212.3z"/>
					<path class="st1" d="M-122.2,98.6H-508c-5.2,0-9.5,4.3-9.5,9.5V324c0,5.2,4.3,9.5,9.5,9.5h385.8c1.9,0,3.5-1.6,3.5-3.5V102.1
						C-118.7,100.2-120.2,98.6-122.2,98.6z M-472.2,231.1c-1.9,0-3.5-1.1-4.1-2.8h-13.6c-0.6,1.7-2.2,3-4.2,3c-2.5,0-4.5-2-4.5-4.5
						s2-4.5,4.5-4.5c0.2,0,0.4,0,0.6,0.1l6.9-12c-0.5-0.7-0.9-1.6-0.9-2.6c0-0.4,0.1-0.9,0.2-1.3l-4.8-3.5c-0.7,0.5-1.6,0.8-2.5,0.8
						c-2.5,0-4.5-2-4.5-4.5s2-4.5,4.5-4.5s4.5,2,4.5,4.5c0,0.4-0.1,0.9-0.2,1.3l4.8,3.5c0.7-0.5,1.6-0.8,2.5-0.8
						c2.5,0,4.5,2,4.5,4.5c0,1-0.3,1.9-0.9,2.6l6.8,11.7c0.1,0,0.3,0,0.4,0c2.5,0,4.5,2,4.5,4.5S-469.7,231.1-472.2,231.1z
						 M-121.7,330.1c0,0.3-0.2,0.5-0.5,0.5h-326.3v-229h326.3c0.3,0,0.5,0.2,0.5,0.5V330.1z"/>
				</g>
			</g>
			<g>
				<g>
					<path class="st1" d="M-386.3,182.5c-19.2,0-34.8,15.6-34.8,34.8s15.6,34.8,34.8,34.8c19.2,0,34.8-15.6,34.8-34.8
						C-351.5,198.2-367.1,182.5-386.3,182.5z"/>
					<g>
						<polygon class="st2" points="-406.1,206 -386.3,194.6 -366.6,206 -366.6,228.8 -386.3,240.2 -406.1,228.8 						"/>
						<path class="st1" d="M-386.3,241.9l-21.3-12.3v-24.5l21.3-12.3l21.3,12.3v24.5L-386.3,241.9z M-404.6,227.9l18.3,10.5
							l18.3-10.5v-21.1l-18.3-10.5l-18.3,10.5V227.9z"/>
					</g>
					<g>
						<line class="st0" x1="-352" y1="217.5" x2="-330.3" y2="217.5"/>
						<g>
							<rect x="-352" y="216" class="st1" width="2" height="3"/>
							<path class="st1" d="M-334.1,219h-3.5v-3h3.5V219z M-339.4,219h-3.5v-3h3.5V219z M-344.7,219h-3.5v-3h3.5V219z"/>
							<rect x="-332.3" y="216" class="st1" width="2" height="3"/>
						</g>
					</g>
					<path class="st1" d="M-235.3,115.5c-54.5,0-98.8,44.3-98.8,98.8s44.3,98.8,98.8,98.8s98.8-44.3,98.8-98.8
						S-180.8,115.5-235.3,115.5z"/>
					<g>
						<polygon class="st2" points="-305.1,174.1 -235.3,133.8 -165.5,174.1 -165.5,254.7 -235.3,295 -305.1,254.7 						"/>
						<path class="st1" d="M-235.3,296.7l-71.3-41.2v-82.3l71.3-41.2l71.3,41.2v82.3L-235.3,296.7z M-303.6,253.8l68.3,39.4
							l68.3-39.4v-78.9l-68.3-39.4l-68.3,39.4L-303.6,253.8L-303.6,253.8z"/>
					</g>
					<g>
						<line class="st0" x1="-399.7" y1="210.2" x2="-396.2" y2="210.2"/>
						<rect x="-399.7" y="208.7" class="st1" width="3.5" height="3"/>
					</g>
					<g>
						<line class="st0" x1="-399.7" y1="215.1" x2="-396.2" y2="215.1"/>
						<rect x="-399.7" y="213.6" class="st1" width="3.5" height="3"/>
					</g>
					<g>
						<line class="st0" x1="-399.7" y1="220.1" x2="-396.2" y2="220.1"/>
						<rect x="-399.7" y="218.6" class="st1" width="3.5" height="3"/>
					</g>
					<g>
						<line class="st0" x1="-399.7" y1="224.7" x2="-396.2" y2="224.7"/>
						<rect x="-399.7" y="223.2" class="st1" width="3.5" height="3"/>
					</g>
					<g>
						<line class="st0" x1="-393" y1="210.2" x2="-379.5" y2="210.2"/>
						<rect x="-393" y="208.7" class="st1" width="13.5" height="3"/>
					</g>
					<g>
						<line class="st0" x1="-393" y1="215.1" x2="-373.5" y2="215.1"/>
						<rect x="-393" y="213.6" class="st1" width="19.5" height="3"/>
					</g>
					<g>
						<line class="st0" x1="-393" y1="220.1" x2="-376.6" y2="220.1"/>
						<rect x="-393" y="218.6" class="st1" width="16.4" height="3"/>
					</g>
					<g>
						<line class="st0" x1="-393" y1="224.7" x2="-381" y2="224.7"/>
						<rect x="-393" y="223.2" class="st1" width="12" height="3"/>
					</g>
				</g>
				<g>
					<g>
						<g>
							<polygon class="st2" points="-284.4,192 -276.3,178 -268.3,192 							"/>
							<path class="st1" d="M-268.2,193.5C-268.2,193.5-268.3,193.5-268.2,193.5h-16.2c-0.5,0-1-0.3-1.3-0.8s-0.3-1,0-1.5l8.1-14
								c0.3-0.5,0.8-0.8,1.3-0.8s1,0.3,1.3,0.8l8,13.8c0.2,0.3,0.3,0.6,0.3,0.9C-266.7,192.8-267.4,193.5-268.2,193.5z
								 M-281.8,190.5h10.9l-5.5-9.5L-281.8,190.5z"/>
						</g>
						<g>
							<path class="st0" d="M-262.1,180.3c-0.5,0-1,0.4-1,1s0.4,1,1,1s1-0.4,1-1S-261.6,180.3-262.1,180.3z M-262.1,181.8
								c-0.3,0-0.5-0.2-0.5-0.5s0.2-0.5,0.5-0.5s0.5,0.2,0.5,0.5S-261.8,181.8-262.1,181.8z"/>
							<path class="st1" d="M-262.1,179.2c-1.1,0-2,0.9-2,2s0.9,2,2,2s2-0.9,2-2C-260.1,180.1-261,179.2-262.1,179.2z"/>
						</g>
						<g>
							<circle class="st2" cx="-262.1" cy="188.2" r="0.5"/>
							<path class="st1" d="M-262.1,190.2c-1.1,0-2-0.9-2-2s0.9-2,2-2s2,0.9,2,2S-261,190.2-262.1,190.2z"/>
						</g>
						<path class="st1" d="M-196.4,176.1h-58.1c-0.8,0-1.5,0.7-1.5,1.5v14c0,0.8,0.7,1.5,1.5,1.5h58.1c0.8,0,1.5-0.7,1.5-1.5v-14
							C-194.9,176.8-195.6,176.1-196.4,176.1z"/>
						<g>
							<circle class="st2" cx="-262.1" cy="202.8" r="0.5"/>
							<path class="st1" d="M-262.1,204.8c-1.1,0-2-0.9-2-2s0.9-2,2-2s2,0.9,2,2C-260.1,203.9-261,204.8-262.1,204.8z"/>
						</g>
						<g>
							<path class="st1" d="M-262.1,211.7c-1.1,0-2-0.9-2-2s0.9-2,2-2s2,0.9,2,2S-261,211.7-262.1,211.7z"/>
						</g>
						<path class="st1" d="M-182.2,197.6h-72.4c-0.8,0-1.5,0.7-1.5,1.5v14c0,0.8,0.7,1.5,1.5,1.5h72.4c0.8,0,1.5-0.7,1.5-1.5v-14
							C-180.7,198.3-181.3,197.6-182.2,197.6z"/>
						<g>
							
								<ellipse transform="matrix(0.1602 -0.9871 0.9871 0.1602 -435.6484 -99.8432)" class="st2" cx="-276.5" cy="206.1" rx="7.2" ry="7.2"/>
							<path class="st1" d="M-276.5,214.9c-4.8,0-8.8-3.9-8.8-8.8s3.9-8.8,8.8-8.8s8.8,3.9,8.8,8.8S-271.7,214.9-276.5,214.9z
								 M-276.5,200.4c-3.2,0-5.8,2.6-5.8,5.8s2.6,5.8,5.8,5.8s5.8-2.6,5.8-5.8S-273.3,200.4-276.5,200.4z"/>
						</g>
					</g>
				</g>
				<g>
					<g>
						<g>
							<path class="st1" d="M-262.1,225.8c-1.1,0-2-0.9-2-2s0.9-2,2-2s2,0.9,2,2C-260.1,224.9-261,225.8-262.1,225.8z"/>
						</g>
						<g>
							<circle class="st2" cx="-262.1" cy="230.7" r="0.5"/>
							<path class="st1" d="M-262.1,232.7c-1.1,0-2-0.9-2-2s0.9-2,2-2s2,0.9,2,2S-261,232.7-262.1,232.7z"/>
						</g>
						<path class="st1" d="M-190,218.6h-64.6c-0.8,0-1.5,0.7-1.5,1.5v14c0,0.8,0.7,1.5,1.5,1.5h64.6c0.8,0,1.5-0.7,1.5-1.5v-14
							C-188.5,219.3-189.2,218.6-190,218.6z"/>
						<g>
							<path class="st1" d="M-277.3,226.1l3.1-1.2c0.7,0.7,1.7,1.2,2.8,1.2c2.2,0,4-1.8,4-4s-1.8-4-4-4s-3.9,1.8-4,3.9l-3.1,1.2
								c-0.7-0.7-1.7-1.2-2.8-1.2c-2.2,0-4,1.8-4,4s1.8,4,4,4c0.6,0,1.1-0.1,1.6-0.3l2.6,2.1c-0.1,0.3-0.1,0.6-0.1,1
								c0,2.2,1.8,4,4,4s4-1.8,4-4s-1.8-4-4-4c-0.7,0-1.4,0.2-2,0.6l-2.3-1.8C-277.4,227.1-277.3,226.7-277.3,226.1z M-281.8,226.2
								L-281.8,226.2L-281.8,226.2z"/>
							<line class="st0" x1="-281.8" y1="226.2" x2="-281.8" y2="226.2"/>
						</g>
					</g>
				</g>
				<g>
					<g>
						<g>
							<path class="st2" d="M-276.5,255.4c-1.6,0-3.1-0.5-4.3-1.4c-1.8-1.3-3-3.4-3-5.8c0-4,3.2-7.2,7.2-7.2"/>
							<path class="st1" d="M-276.5,256.9c-1.9,0-3.7-0.6-5.2-1.7c-2.2-1.6-3.6-4.3-3.6-7.1c0-4.8,3.9-8.8,8.8-8.8
								c0.8,0,1.5,0.7,1.5,1.5s-0.7,1.5-1.5,1.5c-3.2,0-5.8,2.6-5.8,5.8c0,1.8,0.9,3.6,2.4,4.6c1,0.7,2.2,1.1,3.4,1.1
								c0.8,0,1.5,0.7,1.5,1.5C-275,256.2-275.7,256.9-276.5,256.9z"/>
						</g>
						<g>
							<path class="st2" d="M-270.2,244.4c0.6,1.1,1,2.3,1,3.7c0,2.4-1.1,4.4-2.9,5.8"/>
							<path class="st1" d="M-272.1,255.4c-0.5,0-0.9-0.2-1.2-0.6c-0.5-0.7-0.4-1.6,0.3-2.1c1.4-1.1,2.3-2.8,2.3-4.6
								c0-1-0.3-2-0.8-2.9c-0.4-0.7-0.2-1.6,0.5-2.1c0.7-0.4,1.6-0.2,2.1,0.5c0.8,1.3,1.2,2.9,1.2,4.4c0,2.8-1.3,5.3-3.5,7
								C-271.5,255.3-271.8,255.4-272.1,255.4z"/>
						</g>
						<g>
							<path class="st2" d="M-276.4,250.8c-1.6,0-2.8-1.3-2.8-2.8s1.3-2.8,2.8-2.8c1.6,0,2.8,1.3,2.8,2.8"/>
							<path class="st1" d="M-276.4,252.3c-2.4,0-4.3-1.9-4.3-4.3s1.9-4.3,4.3-4.3s4.3,1.9,4.3,4.3c0,0.8-0.7,1.5-1.5,1.5
								s-1.5-0.7-1.5-1.5c0-0.7-0.6-1.3-1.3-1.3s-1.3,0.6-1.3,1.3s0.6,1.3,1.3,1.3c0.8,0,1.5,0.7,1.5,1.5S-275.6,252.3-276.4,252.3z
								"/>
						</g>
						<g>
							<circle class="st2" cx="-262.1" cy="244.8" r="0.5"/>
							<path class="st1" d="M-262.1,246.8c-1.1,0-2-0.9-2-2s0.9-2,2-2s2,0.9,2,2C-260.1,245.9-261,246.8-262.1,246.8z"/>
						</g>
						<g>
							<path class="st1" d="M-262.1,253.7c-1.1,0-2-0.9-2-2s0.9-2,2-2s2,0.9,2,2S-261,253.7-262.1,253.7z"/>
						</g>
						<path class="st1" d="M-198.4,239.6h-56.1c-0.8,0-1.5,0.7-1.5,1.5v14c0,0.8,0.7,1.5,1.5,1.5h56.1c0.8,0,1.5-0.7,1.5-1.5v-14
							C-196.9,240.3-197.6,239.6-198.4,239.6z"/>
					</g>
				</g>
			</g>
			<g>
				<g>
					<g>
						<polygon class="st2" points="-434.1,269.7 -414.3,258.3 -394.6,269.7 -394.6,292.5 -414.3,303.9 -434.1,292.5 						"/>
						<path class="st1" d="M-414.3,305.6l-21.3-12.3v-24.5l21.3-12.3l21.3,12.3v24.5L-414.3,305.6z M-432.6,291.6l18.3,10.5
							l18.3-10.5v-21.1l-18.3-10.5l-18.3,10.5C-432.6,270.5-432.6,291.6-432.6,291.6z"/>
					</g>
					<g>
						<path class="st2" d="M-409.5,277.3c0-4-3.2-7.2-7.2-7.2s-7.2,3.2-7.2,7.2s3.2,7.2,7.2,7.2S-409.5,281.3-409.5,277.3z"/>
						<path class="st1" d="M-406.1,292.4l-4.1-7.3c2.2-1.9,3.7-4.7,3.7-7.8c0-5.6-4.6-10.2-10.2-10.2s-10.2,4.6-10.2,10.2
							s4.6,10.2,10.2,10.2c1.4,0,2.7-0.3,3.9-0.8l4.1,7.2c0.3,0.5,0.8,0.8,1.3,0.8c0.2,0,0.5-0.1,0.7-0.2
							C-405.9,294.1-405.6,293.2-406.1,292.4z M-423.8,277.3c0-4,3.2-7.2,7.2-7.2s7.2,3.2,7.2,7.2s-3.2,7.2-7.2,7.2
							S-423.8,281.3-423.8,277.3z"/>
					</g>
				</g>
			</g>
			<g>
				<g>
					<g>
						<polygon class="st2" points="-378.4,270.3 -358.6,258.9 -338.9,270.3 -338.9,293.1 -358.6,304.5 -378.4,293.1 						"/>
						<path class="st1" d="M-358.6,306.3l-21.3-12.3v-24.5l21.3-12.3l21.3,12.3V294L-358.6,306.3z M-376.9,292.3l18.3,10.5
							l18.3-10.5v-21.1l-18.3-10.5l-18.3,10.5V292.3z"/>
					</g>
					<g>
						<path class="st0" d="M-365.2,280.2c-0.1,1.3-0.1,2.5,0.4,3.6l2.9-4.3C-363,279.8-364.1,280-365.2,280.2z"/>
						<path class="st0" d="M-357.5,278.3l-5,7.3c0.6,0,1.3-0.1,2-0.2l5.1-7.4C-356,278-356.7,278.1-357.5,278.3z"/>
						<path class="st0" d="M-352.6,279.2l-3.4,4.9c1.3-0.4,2.6-0.7,3.9-0.9C-351.9,281.8-351.9,280.4-352.6,279.2z"/>
						<path class="st1" d="M-342.1,286.4c-2.1-2.3-4.4-3.2-6.9-3.3c0.2-2.3-0.1-4.6-1.8-6.5c-2.4-2.7-6.3-1.6-10-0.5
							c-1.3,0.4-2.6,0.7-3.9,1c0.5-2.8,0.9-5.9-1.2-8.2c-0.5-0.6-1.5-0.7-2.1-0.1s-0.7,1.5-0.1,2.1c1.2,1.4,0.8,3.6,0.4,6.2
							c0,0.1,0,0.2,0,0.3c-1.9-0.1-3.6-0.7-5.1-2.3c-0.5-0.6-1.5-0.7-2.1-0.1s-0.7,1.5-0.1,2.1c2.1,2.3,4.4,3.2,6.9,3.3
							c-0.2,2.3,0.1,4.6,1.8,6.5c2.4,2.7,6.3,1.6,10,0.5c1.3-0.4,2.6-0.7,3.9-1c-0.5,2.8-0.9,5.9,1.2,8.2c0.3,0.3,0.7,0.5,1.1,0.5
							c0.4,0,0.7-0.1,1-0.4c0.6-0.6,0.7-1.5,0.1-2.1c-1.2-1.4-0.8-3.6-0.4-6.2c0-0.1,0-0.2,0-0.3c1.9,0.1,3.6,0.6,5.1,2.3
							c0.3,0.3,0.7,0.5,1.1,0.5c0.4,0,0.7-0.1,1-0.4C-341.6,287.9-341.6,287-342.1,286.4z M-362.4,285.6l5-7.3
							c0.8-0.2,1.5-0.3,2.1-0.4l-5.1,7.4C-361.2,285.5-361.9,285.6-362.4,285.6z M-365.2,280.2c1.1-0.2,2.2-0.4,3.3-0.7l-2.9,4.3
							C-365.3,282.7-365.4,281.5-365.2,280.2z M-352.6,279.2c0.7,1.1,0.7,2.5,0.6,4c-1.3,0.2-2.7,0.5-3.9,0.9L-352.6,279.2z"/>
					</g>
				</g>
			</g>
		</g>
	</g>
</g>
</svg>
